<svg id="Layer_1" data-name="Layer 1" xmlns="http://www.w3.org/2000/svg" viewBox="0 0 84.2 32.99"><defs><style>.cls-1{fill:#fff}</style></defs><path class="cls-1" d="M56.64 27.17h2.15a1.85 1.85 0 011.39.41 1.26 1.26 0 01.46 1 1.31 1.31 0 01-.38 1 1.08 1.08 0 01-.52.29 1.37 1.37 0 011.13 1.42 1.5 1.5 0 01-1.48 1.57h-2.72v-5.69zm1.13 1v1.3h.91a1 1 0 00.49-.07.74.74 0 00.29-.59.65.65 0 00-.33-.57 1.15 1.15 0 00-.47-.07h-.9zm0 2.24v1.53h1a.9.9 0 00.53-.13.85.85 0 00.29-.66.72.72 0 00-.42-.69 1.14 1.14 0 00-.44-.05h-.95zm8.93-1.65v.4a1.57 1.57 0 01.55-.49 1 1 0 01.36-.06.85.85 0 01.41.09l-.23.92a.61.61 0 00-.32-.08.87.87 0 00-.67.35v2.95h-1.09v-4.08h1zm4.62 2.97l.42.65a2.38 2.38 0 01-1.57.58 1.94 1.94 0 01-2-2.16 2.29 2.29 0 01.52-1.65 1.64 1.64 0 011.31-.57 1.71 1.71 0 011.21.44 2.46 2.46 0 01.55 1.83v.25h-2.38a.86.86 0 00.88 1 1.64 1.64 0 001.06-.42m-1.93-1.38h1.26a1.07 1.07 0 00-.13-.63.53.53 0 00-.52-.29.73.73 0 00-.65.9zm5.47 2.53v-.29a1.86 1.86 0 01-.25.22 1.45 1.45 0 01-.84.23 1.24 1.24 0 01-1.43-1.3c0-1 .68-1.44 2-1.44h.24v-.16c0-.46-.09-.62-.49-.62a2.31 2.31 0 00-1.21.47l-.46-.78a3.14 3.14 0 01.67-.34 2.83 2.83 0 011.14-.24 1.28 1.28 0 011.34.73 2.14 2.14 0 01.07.75v2.79h-.78zm-.3-1.83c-.76 0-1 .14-1 .64a.49.49 0 00.48.55.79.79 0 00.57-.29zm4.32 1.83v-.29a1.56 1.56 0 01-1.1.4 1.26 1.26 0 01-1.23-.68 2.52 2.52 0 01-.09-.83v-2.67h1.08v2.48a1.51 1.51 0 00.09.68.44.44 0 00.38.2.8.8 0 00.67-.4v-3h1v4.07h-.8zM12.7 9.63a5.71 5.71 0 00-3.31-1.08 4.39 4.39 0 00-3.52 1.67 8.39 8.39 0 00-1.16 5c0 2.64.24 4.12.86 5.17a4.36 4.36 0 004 2.17 5.63 5.63 0 003.13-.95l.42-.31 1.67 2.62a8.89 8.89 0 01-5.52 1.63 8.74 8.74 0 01-6.77-2.68A9.66 9.66 0 010 15.94a11.68 11.68 0 011.4-6 9 9 0 017.93-4.48 9.28 9.28 0 015 1.33zm13.43 11.63l1.43 2.2a8.08 8.08 0 01-5.31 2c-4 0-6.66-2.86-6.66-7.29 0-2.53.52-4.21 1.76-5.59a5.54 5.54 0 014.43-1.9 5.76 5.76 0 014.07 1.49c1.29 1.32 1.87 3.22 1.87 6.16v.85h-8.14v.11c0 2.17 1.07 3.41 3 3.41a5.51 5.51 0 003.58-1.4m-6.49-4.82h4.23v-.2a3.63 3.63 0 00-.44-2.12 1.78 1.78 0 00-1.62-.83c-1.4 0-2.2 1.1-2.2 3.06v.05zm13.13-5.71l.35 1.55a12.41 12.41 0 011.62-1 5.79 5.79 0 012.53-.61 3.5 3.5 0 013.38 2 5.69 5.69 0 01.28 2V25h-3.63v-9.16c0-1.6-.28-2.06-1.24-2.06A4.3 4.3 0 0033.53 15v10h-3.69V10.77h3z"/><path class="cls-1" d="M33.15 10.77v1.55a12.41 12.41 0 011.62-1 5.79 5.79 0 012.53-.61 3.5 3.5 0 013.38 2 5.66 5.66 0 01.28 2V25h-3.63v-9.16c0-1.6-.28-2.06-1.24-2.06A4.3 4.3 0 0033.53 15v10h-3.69V10.77h3.31zm19.31 3.55a7.47 7.47 0 00-3.47-1 1.53 1.53 0 00-1.79 1.38c0 .72.47 1.1 1.76 1.43l1.71.44a4.38 4.38 0 012.8 1.6 3.72 3.72 0 01.77 2.39c0 2.92-2.42 4.9-6 4.9a12.38 12.38 0 01-5.54-1.54l1.16-2.78a10.3 10.3 0 004.68 1.6 1.73 1.73 0 001.87-1.6c0-1-.69-1.46-2.17-1.73l-1.65-.3A5 5 0 0144 17.65a4.26 4.26 0 01-.8-2.53c0-2.75 2.18-4.59 5.45-4.59a10.33 10.33 0 014.82 1.21zM64.05 25v-1.55a12.5 12.5 0 01-1.62 1 5.82 5.82 0 01-2.53.61 3.5 3.5 0 01-3.39-2 5.69 5.69 0 01-.27-2v-10.3h3.63v9.16c0 1.6.28 2.06 1.24 2.06a4.31 4.31 0 002.56-1.27v-10h3.69V25h-3.31zM22.72 1.48v3.7c0 2-1 3.16-2.81 3.16s-2.75-1.17-2.75-3.18V1.48h-.85v-1h2.83v1h-.83v3.79c0 1.34.55 2.06 1.62 2.06s1.64-.7 1.64-2V1.48h-.84v-1h2.83v1h-.84m4.48 6.74v-.91h.67V4.67c0-1.1-.35-1.42-.94-1.42a1.53 1.53 0 00-1.26.75v3.31h.68v.91h-2.49v-.91h.67v-4h-.67v-.87h1.81V3a1.9 1.9 0 011.54-.72c1.16 0 1.8.65 1.8 2.28v2.75h.68v.91H27.2m4.31-6.75a.74.74 0 01-.75-.73.73.73 0 111.47 0 .73.73 0 01-.73.73m-1.16 6.75v-.91h.71v-4h-.71v-.87h1.85v4.87h.71v.91h-2.56zm6.11-.14a2.2 2.2 0 01-1.07.26 1.27 1.27 0 01-1.24-1.53V3.35h-.79v-.91h.78V.78l1.13-.6v2.26h1.3v.91h-1.3V6.7c0 .54.14.69.54.69a1.31 1.31 0 00.35-.05zm5.37-2.35h-3.58c.09 1 .52 1.64 1.43 1.64a2.28 2.28 0 001.55-.56l.49.78a3.11 3.11 0 01-2.1.76c-1.42 0-2.48-1.09-2.48-3s1-3 2.4-3 2.31 1.34 2.31 2.9v.51m-2.37-2.5c-.75 0-1.14.55-1.22 1.57h2.46c-.06-.83-.36-1.57-1.24-1.57m6.76 4.96v-.61a1.76 1.76 0 01-1.43.73c-1.23 0-2.11-.9-2.11-3.1 0-2 1-2.92 2.06-2.92a1.92 1.92 0 011.48.68V1h-.69V.06h1.81v7.25H48v.91h-1.77m0-4.21A1.71 1.71 0 0045 3.26c-.76 0-1.16.66-1.16 1.94 0 1.61.45 2.21 1.21 2.21a1.54 1.54 0 001.21-.74V4zm8.02 4.33a2.09 2.09 0 01-1.67-.75v.63h-1V5.86h.94a1.7 1.7 0 001.71 1.49 1.11 1.11 0 001.3-1.16c0-.67-.21-1-1.61-1.41s-2.28-.92-2.28-2.3a2 2 0 012.2-2.1 1.77 1.77 0 011.62.75V.51h1v2.36h-.95a1.54 1.54 0 00-1.6-1.49 1 1 0 00-1.11 1c0 .64.42 1 1.56 1.31 1.54.44 2.34 1 2.34 2.35a2.17 2.17 0 01-2.45 2.28m10.29-.1v-.63a1.92 1.92 0 01-1.54.75 1.71 1.71 0 01-1.85-1.93 1.86 1.86 0 012.14-1.9 2.7 2.7 0 011.28.28v-.54a.92.92 0 00-1-1 2.67 2.67 0 00-1.43.36l-.42-.8a3.41 3.41 0 011.92-.52 1.84 1.84 0 012.08 1.94v3.08h.63v.91h-1.81m0-2.54a2.56 2.56 0 00-1.28-.25 1 1 0 00-1.06 1 .87.87 0 001 1 1.73 1.73 0 001.36-.73v-1zM75 5.73h-3.54c.09 1 .53 1.64 1.43 1.64a2.29 2.29 0 001.56-.56l.49.78a3.13 3.13 0 01-2.11.76c-1.42 0-2.48-1.09-2.48-3s1-3 2.4-3 2.32 1.34 2.32 2.9v.51m-2.39-2.5c-.75 0-1.13.55-1.21 1.57h2.46c-.06-.83-.37-1.57-1.25-1.57m5.55 5.05a1.51 1.51 0 01-1.31-.55v.46H76v-1.8h.78a1.46 1.46 0 001.37 1 .65.65 0 00.73-.67c0-.43-.19-.67-1-.9C76.51 5.42 76 5 76 4a1.61 1.61 0 011.77-1.61 1.57 1.57 0 011.23.4v-.35h.88v1.81h-.78a1.29 1.29 0 00-1.24-1 .61.61 0 00-.7.64c0 .35.13.6 1 .87 1.35.4 1.84.79 1.84 1.89a1.67 1.67 0 01-1.8 1.66M64 32.83v-.29a1.56 1.56 0 01-1.1.4 1.26 1.26 0 01-1.23-.68 2.49 2.49 0 01-.09-.83v-2.67h1.07v2.48a1.5 1.5 0 00.09.68.44.44 0 00.38.2.81.81 0 00.68-.4v-3h1v4.07H64zm14.88-18.51a7.48 7.48 0 00-3.47-1 1.53 1.53 0 00-1.79 1.38c0 .72.47 1.1 1.76 1.43l1.71.44a4.38 4.38 0 012.81 1.6 3.73 3.73 0 01.77 2.39c0 2.92-2.42 4.9-6 4.9a12.37 12.37 0 01-5.57-1.56l1.16-2.78a10.31 10.31 0 004.68 1.6 1.73 1.73 0 001.87-1.6c0-1-.69-1.46-2.17-1.73L73 19.08a5 5 0 01-2.59-1.43 4.27 4.27 0 01-.8-2.53c0-2.75 2.17-4.59 5.45-4.59a10.31 10.31 0 014.81 1.21zM2.12 29.05h50.16a1.89 1.89 0 110 3.78H2.12a1.89 1.89 0 110-3.78M60.43 8.08a2.2 2.2 0 01-1.07.26 1.27 1.27 0 01-1.24-1.53V3.35h-.79v-.91h.78V.78l1.13-.6v2.26h1.3v.91h-1.3V6.7c0 .54.14.69.54.69a1.31 1.31 0 00.35-.05zm9.22 0a2.19 2.19 0 01-1.07.26 1.27 1.27 0 01-1.24-1.53V3.35h-.78v-.91h.78V.78l1.13-.6v2.26h1.3v.91h-1.3V6.7c0 .54.14.69.54.69a1.31 1.31 0 00.35-.05zM81.72 3.3V1.89h-.53V1.7h1.27v.19h-.53V3.3h-.21zm.95 0V1.7H83l.38 1.13.08.24.09-.26.36-1.11h.29v1.6H84V2l-.47 1.3h-.19l-.46-1.36V3.3h-.2z"/></svg>